<?xml version="1.0" standalone="no"?>
<!DOCTYPE svg PUBLIC "-//W3C//DTD SVG 20010904//EN"
 "http://www.w3.org/TR/2001/REC-SVG-20010904/DTD/svg10.dtd">
<svg version="1.0" xmlns="http://www.w3.org/2000/svg"
 width="96.000000pt" height="96.000000pt" viewBox="0 0 96.000000 96.000000"
 preserveAspectRatio="xMidYMid meet">

<g transform="translate(0.000000,96.000000) scale(0.100000,-0.100000)"
fill="#000000" stroke="none">
<path d="M538 923 c7 -3 16 -2 19 1 4 3 -2 6 -13 5 -11 0 -14 -3 -6 -6z"/>
<path d="M315 905 c-20 -9 -24 -14 -12 -14 21 -1 22 -8 3 -27 -18 -17 -38 -18
-54 -2 -23 23 -125 -79 -171 -169 -28 -56 -20 -55 15 1 27 43 64 67 64 42 0
-6 10 -12 21 -13 21 -2 21 -2 2 16 -10 10 -24 20 -30 22 -8 3 -7 10 3 24 12
16 18 18 34 7 16 -10 20 -10 22 0 0 7 2 18 3 23 2 6 3 16 4 24 1 13 15 12 51
-3 17 -7 72 37 83 67 8 20 2 21 -38 2z"/>
<path d="M785 800 c-3 -5 1 -10 9 -10 9 0 16 5 16 10 0 6 -4 10 -9 10 -6 0
-13 -4 -16 -10z"/>
<path d="M805 696 c10 -14 19 -26 22 -26 7 0 -17 39 -28 46 -6 3 -3 -5 6 -20z"/>
<path d="M236 674 c-6 -15 -4 -15 11 -3 10 7 20 15 22 16 2 2 -3 3 -11 3 -9 0
-19 -7 -22 -16z"/>
<path d="M844 665 c-11 -22 -9 -25 19 -34 40 -14 47 -14 47 4 0 9 -11 20 -24
25 -13 5 -25 13 -27 19 -2 6 -9 -1 -15 -14z"/>
<path d="M790 660 c-9 -6 -10 -10 -3 -10 6 0 15 5 18 10 8 12 4 12 -15 0z"/>
<path d="M212 638 c-16 -16 -15 -34 4 -52 8 -9 11 -16 5 -16 -6 0 -20 9 -31
20 -24 24 -72 26 -90 5 -15 -19 -5 -65 15 -65 8 0 15 5 15 10 0 6 7 10 16 10
11 0 13 -6 9 -19 -4 -14 -1 -20 12 -23 10 -2 18 -12 18 -22 0 -24 38 -31 55
-11 9 11 17 12 32 4 14 -8 23 -8 31 0 8 8 6 11 -5 11 -9 0 -20 5 -24 12 -5 7
-3 8 6 3 9 -5 11 -4 6 3 -4 7 -16 12 -27 12 -24 0 -25 17 -1 23 15 4 15 5 0 6
-10 1 -19 13 -23 31 -4 17 -11 30 -17 30 -6 0 -5 6 2 15 16 19 8 29 -8 13z m8
-83 c27 -15 20 -19 -17 -9 -13 4 -23 10 -23 15 0 12 11 11 40 -6z m5 -35 c3
-5 1 -10 -4 -10 -6 0 -11 5 -11 10 0 6 2 10 4 10 3 0 8 -4 11 -10z"/>
<path d="M917 579 c4 -13 8 -18 11 -10 2 7 -1 18 -6 23 -8 8 -9 4 -5 -13z"/>
<path d="M30 486 c0 -166 86 -315 231 -399 118 -69 280 -76 403 -19 37 17 85
46 107 62 34 28 38 35 32 63 -3 18 -12 40 -19 51 -8 12 -11 35 -7 66 4 34 1
51 -9 61 -8 7 -13 21 -10 31 5 20 -5 22 -43 8 -43 -16 -105 -24 -190 -25 -85
0 -90 2 -163 61 -22 18 -30 22 -26 10 3 -9 12 -16 20 -16 7 0 21 -11 29 -24 9
-14 28 -29 43 -34 15 -6 36 -17 46 -24 18 -14 18 -17 3 -44 -9 -16 -18 -42
-22 -57 -3 -16 -16 -32 -30 -39 -14 -6 -25 -15 -25 -21 0 -17 -41 -67 -51 -61
-5 3 -8 0 -7 -7 2 -6 -11 -20 -28 -30 -26 -16 -33 -17 -50 -5 -18 13 -19 20
-10 86 10 69 9 73 -12 90 -12 10 -22 21 -22 25 0 4 -7 23 -17 42 -15 33 -15
37 1 64 16 27 14 55 -3 45 -4 -3 -25 11 -46 30 -21 19 -47 34 -58 34 -20 0
-47 22 -47 39 0 6 -4 11 -10 11 -6 0 -10 -31 -10 -74z"/>
<path d="M631 423 c10 -17 19 -21 39 -16 14 3 30 10 36 14 6 5 14 6 17 2 4 -3
7 -1 7 5 0 15 -6 15 -49 2 -25 -7 -39 -6 -49 3 -13 10 -14 9 -1 -10z"/>
</g>
</svg>
